<svg width="118" height="37" viewBox="0 0 118 37" fill="none" xmlns="http://www.w3.org/2000/svg">
<g clip-path="url(#clip0_1981_41309)">
<path d="M21.8823 21.3816C21.6317 20.8008 21.2896 20.2916 20.8481 19.8501C20.4105 19.4125 19.9014 19.0624 19.3166 18.8038C18.7358 18.5492 18.1113 18.418 17.443 18.418H17.3555L13.5765 20.9957C13.135 20.1961 12.5383 19.5636 11.7865 19.1062C11.0307 18.6487 10.1953 18.418 9.28041 18.418H9.19289L5.9549 20.8525V18.418H0V35.1177H5.9549V25.292C5.9549 24.6833 6.07025 24.2378 6.30097 23.9593C6.52771 23.6849 6.77832 23.5456 7.04484 23.5456C7.35113 23.5456 7.58981 23.6809 7.76086 23.9474C7.85632 24.0628 7.94384 24.2219 8.01942 24.4327C8.095 24.6436 8.13478 24.9379 8.13478 25.3198V35.1177H14.1175V25.292C14.1175 24.6833 14.2329 24.2378 14.4636 23.9593C14.6903 23.6849 14.9409 23.5456 15.2075 23.5456C15.474 23.5456 15.7246 23.6888 15.9513 23.9753C16.182 24.2617 16.2974 24.7112 16.2974 25.3198V35.1177H22.2523V23.2592C22.2523 22.5909 22.129 21.9664 21.8823 21.3816Z" fill="white"/>
<path d="M64.3799 23.6451C64.4953 23.5775 64.8215 23.5456 65.3545 23.5456H72.3993V18.418H63.9225C62.9479 18.418 62.1046 18.5731 61.3886 18.8754C60.6725 19.1817 60.0838 19.5875 59.6263 20.0927C59.1689 20.6019 58.8228 21.1668 58.5961 21.7993C58.3654 22.4278 58.25 23.0762 58.25 23.7445C58.25 24.4128 58.3654 25.0772 58.5961 25.7375C58.8228 26.3939 59.1808 26.9866 59.6701 27.5117C60.1554 28.0368 60.768 28.4625 61.5039 28.7886C62.2358 29.1109 63.103 29.274 64.0935 29.274H65.6966C66.0785 29.2939 66.3012 29.3376 66.3569 29.4013C66.4126 29.4689 66.4444 29.5405 66.4444 29.6161C66.4444 29.6757 66.4325 29.7275 66.4126 29.7752C66.3967 29.8229 66.349 29.8627 66.2694 29.8906C66.1938 29.9184 66.0785 29.9423 65.9273 29.9622C65.7762 29.9821 65.5653 29.99 65.2988 29.99H58.25V35.1177H66.7308C67.7015 35.1177 68.5487 34.9546 69.2648 34.6284C69.9808 34.3062 70.5655 33.8845 71.027 33.3713C71.4844 32.8542 71.8265 32.2654 72.0572 31.6091C72.284 30.9487 72.3993 30.2963 72.3993 29.6479C72.3993 28.9995 72.284 28.3232 72.0572 27.6828C71.8265 27.0463 71.4725 26.4734 70.9951 25.9643C70.5178 25.4591 69.9132 25.0493 69.1773 24.7351C68.4413 24.4208 67.5702 24.2617 66.5558 24.2617H64.9806C64.5987 24.2418 64.3759 24.198 64.3083 24.1344C64.2407 24.0667 64.2089 23.9951 64.2089 23.9196C64.2089 23.8042 64.2646 23.7127 64.3799 23.6451Z" fill="white"/>
<path d="M81.1905 30.0177C80.6933 30.0177 80.2677 29.8427 79.9176 29.4887C79.5636 29.1346 79.3846 28.709 79.3846 28.2157V23.5177H84.8582V18.4178H79.3846V15.0684H73.4297V30.2763C73.4297 30.9446 73.557 31.5692 73.8155 32.1539C74.0741 32.7347 74.4202 33.2439 74.8617 33.6855C75.2993 34.123 75.8085 34.4731 76.3932 34.7317C76.974 34.9863 77.5985 35.1175 78.2708 35.1175H87.5472V30.0177H81.1905Z" fill="white"/>
<path d="M102.167 28.0116C102.167 26.7148 102.083 25.4776 101.924 24.3041C101.761 23.1306 101.427 22.0923 100.922 21.1973C100.412 20.2982 99.6845 19.5862 98.7298 19.0611C97.7751 18.536 96.5062 18.2734 94.919 18.2734C94.0399 18.2734 93.1727 18.4087 92.3135 18.6752C91.4543 18.9417 90.6826 19.3873 89.9944 20.0079C89.3062 20.6284 88.7533 21.4519 88.3316 22.4862C87.914 23.5165 87.7031 24.7934 87.7031 26.321C87.7031 29.1493 88.5146 31.3452 90.1376 32.9085C90.9013 33.6723 91.8043 34.2412 92.8426 34.6151C93.8848 34.9851 95.0344 35.1521 96.2954 35.1163H101.88L101.908 29.9887H96.2954C94.8434 29.9887 94.0797 29.4238 94.0041 28.298H102.167V28.0116ZM94.0319 24.9485C94.0717 24.3757 94.2189 23.954 94.4775 23.6875C94.732 23.421 95.0065 23.2857 95.2929 23.2857C95.5992 23.2857 95.8737 23.4409 96.1243 23.7432C96.3709 24.0296 96.5141 24.4314 96.5539 24.9485H94.0319Z" fill="white"/>
<path d="M111.957 18.418L109.037 20.4229V18.418H103.078V35.1177H109.037V25.1766C109.037 24.6833 109.212 24.2577 109.566 23.9036C109.916 23.5496 110.342 23.3746 110.839 23.3746H117.2V18.418H111.957Z" fill="white"/>
<path d="M25.8781 5.13156C25.345 5.13156 25.0189 5.16339 24.9035 5.23101C24.7881 5.29864 24.7325 5.39014 24.7325 5.50152C24.7325 5.5771 24.7643 5.64871 24.8319 5.71633C24.8995 5.78396 25.1223 5.82772 25.5042 5.84363H27.0794C28.0898 5.84363 28.9649 6.00275 29.7008 6.31701C30.4367 6.63128 31.0414 7.04101 31.5187 7.5502C31.9961 8.0554 32.3501 8.62824 32.5768 9.2687C32.8076 9.90916 32.9189 10.5616 32.9189 11.2299C32.9189 11.8982 32.8036 12.5346 32.5768 13.191C32.3461 13.8514 32.004 14.4361 31.5466 14.9533C31.0891 15.4704 30.5004 15.8881 29.7844 16.2143C29.0683 16.5405 28.225 16.6996 27.2505 16.6996H18.7736V11.572H25.8184C26.0849 11.572 26.2958 11.564 26.4469 11.5441C26.5981 11.5242 26.7134 11.5004 26.789 11.4725C26.8646 11.4447 26.9123 11.4049 26.9322 11.3572C26.9521 11.3094 26.9601 11.2577 26.9601 11.198C26.9601 11.1225 26.9322 11.0508 26.8726 10.9832C26.8169 10.9156 26.5941 10.8718 26.2122 10.8559H24.6091C23.6147 10.8559 22.7515 10.6928 22.0156 10.3706C21.2796 10.0444 20.671 9.62274 20.1818 9.09764C19.6965 8.57255 19.3384 7.97982 19.1077 7.32345C18.877 6.6631 18.7656 6.00275 18.7656 5.33444C18.7656 4.66614 18.881 4.01772 19.1077 3.38522C19.3384 2.75669 19.6805 2.18784 20.138 1.68263C20.5955 1.17742 21.1842 0.771663 21.9002 0.465356C22.6282 0.159049 23.4715 0.00390625 24.446 0.00390625H32.9229V5.13156H25.8781Z" fill="white"/>
<path d="M42.291 0.00390625V9.85744C42.291 10.4701 42.1796 10.9116 41.9609 11.1901C41.7421 11.4646 41.4994 11.6038 41.2289 11.6038C40.9266 11.6038 40.6879 11.4725 40.5129 11.202C40.4174 11.0866 40.3299 10.9196 40.2424 10.7008C40.1549 10.482 40.1151 10.1836 40.1151 9.80175V0.00390625H34.1562V11.8624C34.1562 12.5307 34.2835 13.1552 34.5421 13.736C34.8007 14.3208 35.1467 14.83 35.5883 15.2715C36.0259 15.7091 36.539 16.0592 37.1198 16.3177C37.7045 16.5723 38.3291 16.7036 38.9973 16.7036H39.0809L42.291 14.2691V16.5007C42.291 16.998 42.12 17.4236 41.7739 17.7777C41.4318 18.1277 41.0101 18.3067 40.5129 18.3067H34.1562C34.7251 18.3863 35.2899 18.5096 35.8548 18.6767C36.9607 19.0029 37.9591 19.5041 38.8462 20.1804C39.7372 20.8566 40.4532 21.7159 40.9982 22.7581C41.1016 22.957 41.1931 23.1639 41.2727 23.3747H43.4367C44.1049 23.3747 44.7295 23.2514 45.3102 23.0048C45.895 22.7542 46.4042 22.4121 46.8457 21.9745C47.2833 21.5329 47.6293 21.0237 47.8879 20.439C48.1465 19.8582 48.2777 19.2336 48.2777 18.5653V0.00390625H42.291Z" fill="white"/>
<path d="M56.0638 21.3816C55.8052 20.8008 55.4551 20.2916 55.0176 19.8501C54.576 19.4125 54.0669 19.0624 53.4861 18.8038C52.9013 18.5492 52.2768 18.418 51.6085 18.418H51.521L48.287 20.8525V18.418H42.3281V35.1734H48.287V25.292C48.287 24.6833 48.4024 24.2338 48.6291 23.9474C48.8598 23.661 49.1064 23.5178 49.373 23.5178C49.6594 23.5178 49.898 23.661 50.089 23.9474C50.1844 24.0628 50.272 24.2219 50.3475 24.4327C50.4231 24.6436 50.4629 24.9379 50.4629 25.3198V35.1734H56.4496V23.2592C56.4496 22.5909 56.3184 21.9664 56.0638 21.3816Z" fill="white"/>
<path d="M59.2179 0.00390625C59.8862 0.00390625 60.5107 0.131203 61.0955 0.389774C61.6762 0.648344 62.1894 0.994431 62.627 1.43599C63.0645 1.87357 63.4146 2.38674 63.6731 2.96753C63.9317 3.54832 64.059 4.17684 64.059 4.84515V16.7593H58.0723V6.90576C58.0723 6.52387 58.0325 6.2295 57.9569 6.01866C57.8813 5.80783 57.7938 5.64473 57.6984 5.53334C57.5074 5.24693 57.2687 5.10372 56.9823 5.10372C56.7158 5.10372 56.4652 5.24693 56.2385 5.53334C56.0078 5.81976 55.8964 6.26928 55.8964 6.87791V16.7593H49.9375V0.00390625H55.8964V2.43845L59.1304 0.00390625H59.2179Z" fill="white"/>
<path d="M71.1583 8.25529C71.1583 10.471 72.1807 11.5769 74.2213 11.5769H79.4323L79.4045 16.7046H74.5913C73.199 16.7046 71.8664 16.4659 70.5975 15.9886C69.3285 15.5112 68.2545 14.8429 67.3754 13.9836C65.7723 12.4163 64.9688 10.4313 64.9688 8.02457C64.9688 6.95448 65.1557 5.96396 65.5257 5.04504C65.8996 4.13009 66.4485 3.31858 67.1725 2.61049C68.0874 1.71146 69.2291 1.04316 70.5935 0.605575C71.9579 0.167994 73.386 -0.0348847 74.8737 0.00489539H79.4284L79.4005 6.8789H73.4138V5.13255C72.6302 5.26781 72.0573 5.58207 71.6954 6.07932C71.3334 6.57657 71.1504 7.30057 71.1504 8.25529H71.1583Z" fill="white"/>
<g clip-path="url(#clip1_1981_41309)">
<path d="M25.8625 25.8789C25.7523 26.3305 25.6938 26.802 25.6938 27.286C25.6938 30.6408 28.4935 33.3699 31.9346 33.3699C35.3756 33.3699 38.1748 30.6408 38.1748 27.286C38.1748 26.802 38.1164 26.3305 38.0062 25.8789C38.419 26.7274 38.6499 27.6756 38.6499 28.6756C38.6499 32.2856 35.6374 35.2226 31.9346 35.2226C28.2317 35.2226 25.2188 32.2856 25.2188 28.6756C25.2188 27.6756 25.4496 26.7274 25.8625 25.8789Z" fill="#FF1901"/>
<path d="M40.5522 27.2864C40.5522 29.637 39.5621 31.7621 37.9658 33.2864C38.9901 32.0154 39.602 30.4138 39.602 28.6759C39.602 24.5551 36.1628 21.2026 31.936 21.2026C27.7092 21.2026 24.2705 24.5551 24.2705 28.6759C24.2705 30.4138 24.8824 32.0154 25.9067 33.2864C24.3104 31.7621 23.3203 29.637 23.3203 27.2864C23.3203 22.6472 27.1775 18.8867 31.936 18.8867C36.6945 18.8867 40.5522 22.6472 40.5522 27.2864Z" fill="#FF1901"/>
<path d="M25.8625 25.8789C25.7523 26.3305 25.6938 26.802 25.6938 27.286C25.6938 30.6408 28.4935 33.3699 31.9346 33.3699C35.3756 33.3699 38.1748 30.6408 38.1748 27.286C38.1748 26.802 38.1164 26.3305 38.0062 25.8789C38.419 26.7274 38.6499 27.6756 38.6499 28.6756C38.6499 32.2856 35.6374 35.2226 31.9346 35.2226C28.2317 35.2226 25.2188 32.2856 25.2188 28.6756C25.2188 27.6756 25.4496 26.7274 25.8625 25.8789Z" fill="#FF1901"/>
<path d="M28.5888 26.8061C28.5656 26.9631 28.5532 27.1234 28.5532 27.2864C28.5532 29.1085 30.074 30.5912 31.9434 30.5912C33.8124 30.5912 35.3332 29.1085 35.3332 27.2864C35.3332 27.1229 35.3208 26.9622 35.2971 26.8047C35.6225 27.3563 35.8082 27.995 35.8082 28.6759C35.8082 30.7537 34.0747 32.4439 31.9434 32.4439C29.8122 32.4439 28.0781 30.7537 28.0781 28.6759C28.0781 27.996 28.2639 27.3573 28.5888 26.8061Z" fill="#FF1901"/>
<path d="M31.8697 24.9096C31.8545 24.9096 31.8393 24.9101 31.8241 24.9105C31.8393 24.9105 31.855 24.9096 31.8707 24.9091C31.8816 24.9082 31.893 24.9082 31.9044 24.9087C31.9163 24.9087 31.9282 24.9082 31.94 24.9082C31.9519 24.9082 31.9638 24.9087 31.9757 24.9087C31.9871 24.9082 31.9985 24.9082 32.0094 24.9091C32.0251 24.9091 32.0408 24.9101 32.056 24.9105C32.0408 24.9105 32.0256 24.9096 32.0104 24.9096C33.323 24.9457 34.3796 25.9981 34.3796 27.2871C34.3796 28.5988 33.2855 29.6655 31.94 29.6655C30.5946 29.6655 29.5 28.5988 29.5 27.2871C29.5 25.9981 30.5571 24.9457 31.8697 24.9096Z" fill="#FF1901"/>
<path d="M36.6566 29.6185C36.7203 29.3137 36.754 28.9987 36.754 28.6759C36.754 26.0872 34.5938 23.9816 31.9385 23.9816C29.2833 23.9816 27.1235 26.0872 27.1235 28.6759C27.1235 28.9987 27.1573 29.3137 27.2209 29.6185C26.8551 28.9177 26.6484 28.1252 26.6484 27.2864C26.6484 24.4425 29.0215 22.1289 31.9385 22.1289C34.8555 22.1289 37.2291 24.4425 37.2291 27.2864C37.2291 28.1252 37.0224 28.9177 36.6566 29.6185Z" fill="#FF1901"/>
</g>
</g>
<defs>
<clipPath id="clip0_1981_41309">
<rect width="118" height="36.5858" fill="white"/>
</clipPath>
<clipPath id="clip1_1981_41309">
<rect width="17.2318" height="16.3367" fill="white" transform="translate(23.3203 18.8867)"/>
</clipPath>
</defs>
</svg>
