<svg width="22" height="20" viewBox="0 0 22 20" fill="none" xmlns="http://www.w3.org/2000/svg">
<g clip-path="url(#clip0_4735_6822)">
<path d="M3.11427 8.56116C2.97933 9.11402 2.90779 9.69126 2.90779 10.2838C2.90779 14.3909 6.33527 17.7319 10.5479 17.7319C14.7606 17.7319 18.1875 14.3909 18.1875 10.2838C18.1875 9.69126 18.116 9.11402 17.981 8.56116C18.4864 9.59997 18.7691 10.7607 18.7691 11.9849C18.7691 16.4044 15.0811 20 10.5479 20C6.0148 20 2.32617 16.4044 2.32617 11.9849C2.32617 10.7607 2.60884 9.59997 3.11427 8.56116Z" fill="#FF1901"/>
<path d="M21.0954 10.2831C21.0954 13.1608 19.8833 15.7624 17.9291 17.6285C19.183 16.0726 19.9322 14.1118 19.9322 11.9842C19.9322 6.93929 15.7218 2.83507 10.5472 2.83507C5.37251 2.83507 1.16275 6.93929 1.16275 11.9842C1.16275 14.1118 1.91187 16.0726 3.16584 17.6285C1.21161 15.7624 -0.000488281 13.1608 -0.000488281 10.2831C-0.000488281 4.60366 4.72167 -0.00012207 10.5472 -0.00012207C16.3727 -0.00012207 21.0954 4.60366 21.0954 10.2831Z" fill="#FF1901"/>
<path d="M3.11427 8.56116C2.97933 9.11402 2.90779 9.69126 2.90779 10.2838C2.90779 14.3909 6.33527 17.7319 10.5479 17.7319C14.7606 17.7319 18.1875 14.3909 18.1875 10.2838C18.1875 9.69126 18.116 9.11402 17.981 8.56116C18.4864 9.59997 18.7691 10.7607 18.7691 11.9849C18.7691 16.4044 15.0811 20 10.5479 20C6.0148 20 2.32617 16.4044 2.32617 11.9849C2.32617 10.7607 2.60884 9.59997 3.11427 8.56116Z" fill="#FF1901"/>
<path d="M6.44189 9.6964C6.41339 9.88863 6.39827 10.0848 6.39827 10.2844C6.39827 12.5151 8.26003 14.3302 10.5487 14.3302C12.8368 14.3302 14.6986 12.5151 14.6986 10.2844C14.6986 10.0843 14.6834 9.8875 14.6543 9.6947C15.0528 10.37 15.2802 11.152 15.2802 11.9855C15.2802 14.5293 13.1578 16.5984 10.5487 16.5984C7.93956 16.5984 5.81665 14.5293 5.81665 11.9855C5.81665 11.1531 6.04406 10.3712 6.44189 9.6964Z" fill="#FF1901"/>
<path d="M10.4607 7.37341C10.4421 7.37341 10.4235 7.37397 10.4048 7.37454C10.4235 7.37454 10.4427 7.37341 10.4618 7.37284C10.4752 7.3717 10.4892 7.3717 10.5031 7.37227C10.5177 7.37227 10.5322 7.3717 10.5468 7.3717C10.5613 7.3717 10.5758 7.37227 10.5904 7.37227C10.6043 7.3717 10.6183 7.3717 10.6317 7.37284C10.6509 7.37284 10.6701 7.37397 10.6887 7.37454C10.6701 7.37454 10.6515 7.37341 10.6328 7.37341C12.2399 7.41763 13.5334 8.70594 13.5334 10.284C13.5334 11.8899 12.1939 13.1958 10.5468 13.1958C8.89962 13.1958 7.55957 11.8899 7.55957 10.284C7.55957 8.70594 8.85367 7.41763 10.4607 7.37341Z" fill="#FF1901"/>
<path d="M16.3234 13.1382C16.4014 12.7651 16.4427 12.3795 16.4427 11.9843C16.4427 8.81515 13.798 6.23739 10.5474 6.23739C7.2967 6.23739 4.65266 8.81515 4.65266 11.9843C4.65266 12.3795 4.69396 12.7651 4.7719 13.1382C4.32405 12.2803 4.07104 11.3101 4.07104 10.2832C4.07104 6.80159 6.97623 3.96924 10.5474 3.96924C14.1185 3.96924 17.0243 6.80159 17.0243 10.2832C17.0243 11.3101 16.7713 12.2803 16.3234 13.1382Z" fill="#FF1901"/>
</g>
<defs>
<clipPath id="clip0_4735_6822">
<rect width="21.0959" height="20" fill="white"/>
</clipPath>
</defs>
</svg>
