<svg width="140" height="88" viewBox="0 0 140 88" fill="none" xmlns="http://www.w3.org/2000/svg">
<g style="mix-blend-mode:multiply" opacity="0.5">
<g clip-path="url(#clip0_4228_5342)">
<path d="M-6.76276 34.4666C-7.8561 38.8984 -8.43576 43.5257 -8.43576 48.2757C-8.43576 81.1987 19.336 107.981 53.4699 107.981C87.6038 107.981 115.371 81.1987 115.371 48.2757C115.371 43.5257 114.791 38.8984 113.698 34.4666C117.793 42.7939 120.084 52.0985 120.084 61.9122C120.084 97.3397 90.2005 126.163 53.4699 126.163C16.7393 126.163 -13.1484 97.3397 -13.1484 61.9122C-13.1484 52.0985 -10.8581 42.7939 -6.76276 34.4666Z" fill="#F2EDE9"/>
<path d="M138.933 48.2705C138.933 71.3388 129.112 92.1935 113.278 107.153C123.438 94.6799 129.508 78.9616 129.508 61.907C129.508 21.4658 95.393 -11.4344 53.4644 -11.4344C11.5357 -11.4344 -22.5746 21.4658 -22.5746 61.907C-22.5746 78.9616 -16.5047 94.6799 -6.3442 107.153C-22.1788 92.1935 -32 71.3388 -32 48.2705C-32 2.74292 6.26221 -34.1619 53.4644 -34.1619C100.667 -34.1619 138.933 2.74292 138.933 48.2705Z" fill="#F2EDE9"/>
<path d="M-6.76276 34.4666C-7.8561 38.8984 -8.43576 43.5257 -8.43576 48.2757C-8.43576 81.1987 19.336 107.981 53.4699 107.981C87.6038 107.981 115.371 81.1987 115.371 48.2757C115.371 43.5257 114.791 38.8984 113.698 34.4666C117.793 42.7939 120.084 52.0985 120.084 61.9122C120.084 97.3397 90.2005 126.163 53.4699 126.163C16.7393 126.163 -13.1484 97.3397 -13.1484 61.9122C-13.1484 52.0985 -10.8581 42.7939 -6.76276 34.4666Z" fill="#F2EDE9"/>
<path d="M20.2046 43.5612C19.9736 45.1022 19.8511 46.6749 19.8511 48.2749C19.8511 66.1568 34.9364 80.7069 53.4808 80.7069C72.0204 80.7069 87.1057 66.1568 87.1057 48.2749C87.1057 46.6704 86.9832 45.0931 86.7475 43.5476C89.9757 48.9613 91.8184 55.2295 91.8184 61.9114C91.8184 82.3024 74.6218 98.8889 53.4808 98.8889C32.3397 98.8889 15.1384 82.3024 15.1384 61.9114C15.1384 55.2386 16.9811 48.9704 20.2046 43.5612Z" fill="#F2EDE9"/>
<path d="M52.7685 24.9401C52.6177 24.9401 52.4669 24.9447 52.3161 24.9492C52.4669 24.9492 52.6224 24.9402 52.778 24.9356C52.8864 24.9265 52.9995 24.9265 53.1126 24.9311C53.2304 24.9311 53.3482 24.9265 53.466 24.9265C53.5838 24.9265 53.7017 24.9311 53.8195 24.9311C53.9326 24.9265 54.0457 24.9265 54.1541 24.9356C54.3096 24.9356 54.4651 24.9447 54.6159 24.9492C54.4651 24.9492 54.3143 24.9401 54.1635 24.9401C67.1846 25.2947 77.6656 35.622 77.6656 48.2721C77.6656 61.1449 66.8123 71.6132 53.466 71.6132C40.1197 71.6132 29.2617 61.1449 29.2617 48.2721C29.2617 35.622 39.7474 25.2947 52.7685 24.9401Z" fill="#F2EDE9"/>
<path d="M100.272 71.1565C100.904 68.1656 101.238 65.0746 101.238 61.9064C101.238 36.5017 79.8099 15.8379 53.4708 15.8379C27.1316 15.8379 5.70779 36.5017 5.70779 61.9064C5.70779 65.0746 6.04239 68.1656 6.67389 71.1565C3.04513 64.2792 0.995117 56.5019 0.995117 48.27C0.995117 20.3607 24.5349 -2.34399 53.4708 -2.34399C82.4066 -2.34399 105.951 20.3607 105.951 48.27C105.951 56.5019 103.901 64.2792 100.272 71.1565Z" fill="#F2EDE9"/>
</g>
</g>
<defs>
<clipPath id="clip0_4228_5342">
<rect width="140" height="88" rx="3" fill="white"/>
</clipPath>
</defs>
</svg>
