<svg width="22" height="20" viewBox="0 0 22 20" fill="none" xmlns="http://www.w3.org/2000/svg">
<g clip-path="url(#clip0_4735_6605)">
<path d="M3.11439 8.56116C2.97945 9.11402 2.90791 9.69126 2.90791 10.2838C2.90791 14.3909 6.33539 17.7319 10.5481 17.7319C14.7607 17.7319 18.1876 14.3909 18.1876 10.2838C18.1876 9.69126 18.1161 9.11402 17.9811 8.56116C18.4866 9.59997 18.7692 10.7607 18.7692 11.9849C18.7692 16.4044 15.0812 20 10.5481 20C6.01492 20 2.32629 16.4044 2.32629 11.9849C2.32629 10.7607 2.60896 9.59997 3.11439 8.56116Z" fill="white"/>
<path d="M21.0955 10.2831C21.0955 13.1608 19.8834 15.7624 17.9292 17.6285C19.1832 16.0726 19.9323 14.1118 19.9323 11.9842C19.9323 6.93929 15.7219 2.83507 10.5473 2.83507C5.37263 2.83507 1.16287 6.93929 1.16287 11.9842C1.16287 14.1118 1.912 16.0726 3.16597 17.6285C1.21173 15.7624 -0.000366211 13.1608 -0.000366211 10.2831C-0.000366211 4.60366 4.7218 -0.00012207 10.5473 -0.00012207C16.3728 -0.00012207 21.0955 4.60366 21.0955 10.2831Z" fill="white"/>
<path d="M3.11439 8.56116C2.97945 9.11402 2.90791 9.69126 2.90791 10.2838C2.90791 14.3909 6.33539 17.7319 10.5481 17.7319C14.7607 17.7319 18.1876 14.3909 18.1876 10.2838C18.1876 9.69126 18.1161 9.11402 17.9811 8.56116C18.4866 9.59997 18.7692 10.7607 18.7692 11.9849C18.7692 16.4044 15.0812 20 10.5481 20C6.01492 20 2.32629 16.4044 2.32629 11.9849C2.32629 10.7607 2.60896 9.59997 3.11439 8.56116Z" fill="white"/>
<path d="M6.44177 9.6964C6.41327 9.88863 6.39815 10.0848 6.39815 10.2844C6.39815 12.5151 8.25991 14.3302 10.5486 14.3302C12.8367 14.3302 14.6984 12.5151 14.6984 10.2844C14.6984 10.0843 14.6833 9.8875 14.6542 9.6947C15.0526 10.37 15.28 11.152 15.28 11.9855C15.28 14.5293 13.1577 16.5984 10.5486 16.5984C7.93944 16.5984 5.81653 14.5293 5.81653 11.9855C5.81653 11.1531 6.04394 10.3712 6.44177 9.6964Z" fill="white"/>
<path d="M10.4608 7.37341C10.4422 7.37341 10.4236 7.37397 10.405 7.37454C10.4236 7.37454 10.4428 7.37341 10.462 7.37284C10.4753 7.3717 10.4893 7.3717 10.5033 7.37227C10.5178 7.37227 10.5323 7.3717 10.5469 7.3717C10.5614 7.3717 10.576 7.37227 10.5905 7.37227C10.6045 7.3717 10.6184 7.3717 10.6318 7.37284C10.651 7.37284 10.6702 7.37397 10.6888 7.37454C10.6702 7.37454 10.6516 7.37341 10.633 7.37341C12.24 7.41763 13.5335 8.70594 13.5335 10.284C13.5335 11.8899 12.194 13.1958 10.5469 13.1958C8.89974 13.1958 7.55969 11.8899 7.55969 10.284C7.55969 8.70594 8.85379 7.41763 10.4608 7.37341Z" fill="white"/>
<path d="M16.3234 13.1382C16.4014 12.7651 16.4427 12.3795 16.4427 11.9843C16.4427 8.81515 13.798 6.23739 10.5474 6.23739C7.2967 6.23739 4.65266 8.81515 4.65266 11.9843C4.65266 12.3795 4.69396 12.7651 4.7719 13.1382C4.32405 12.2803 4.07104 11.3101 4.07104 10.2832C4.07104 6.80159 6.97623 3.96924 10.5474 3.96924C14.1185 3.96924 17.0243 6.80159 17.0243 10.2832C17.0243 11.3101 16.7713 12.2803 16.3234 13.1382Z" fill="white"/>
</g>
<defs>
<clipPath id="clip0_4735_6605">
<rect width="21.0959" height="20" fill="white"/>
</clipPath>
</defs>
</svg>
