<svg width="24" height="24" viewBox="0 0 24 24" fill="none" xmlns="http://www.w3.org/2000/svg">
<g clip-path="url(#clip0_4265_771)">
<path fill-rule="evenodd" clip-rule="evenodd" d="M4.29818 23.5909C9.42002 24.1373 14.5854 24.1373 19.7073 23.5909C20.7017 23.4845 21.6297 23.0404 22.3364 22.3327C23.0431 21.625 23.4859 20.6964 23.5909 19.7018C24.1373 14.58 24.1373 9.41456 23.5909 4.29273C23.4845 3.29827 23.0404 2.37033 22.3327 1.66362C21.625 0.956907 20.6964 0.514126 19.7018 0.409094C14.58 -0.137341 9.41456 -0.137341 4.29273 0.409094C3.29827 0.515522 2.37033 0.959605 1.66362 1.66731C0.956907 2.37501 0.514126 3.30357 0.409094 4.29818C-0.137341 9.42002 -0.137341 14.5854 0.409094 19.7073C0.515522 20.7017 0.959605 21.6297 1.66731 22.3364C2.37501 23.0431 3.30357 23.4859 4.29818 23.5909ZM16.9428 6.78062C17.8564 6.9088 18.8491 7.46789 19.1491 8.39108C19.6169 10.7743 19.6169 13.2256 19.1491 15.6088C18.8519 16.5374 17.8564 17.0911 16.9428 17.2193C13.6566 17.5684 10.3426 17.5684 7.05642 17.2193C6.14278 17.0911 5.15006 16.5306 4.85006 15.6088C4.38234 13.2256 4.38234 10.7743 4.85006 8.39108C5.14733 7.46244 6.14278 6.9088 7.05642 6.78062C10.3426 6.43153 13.6566 6.43153 16.9428 6.78062ZM10.2051 9.12471V14.8738C11.0144 14.3764 11.8132 13.8859 12.6132 13.3946C13.3661 12.9323 14.1201 12.4693 14.8851 11.9993L10.2051 9.12471Z" fill="#FF1901"/>
</g>
<defs>
<clipPath id="clip0_4265_771">
<rect width="24" height="24" fill="white"/>
</clipPath>
</defs>
</svg>
